<?xml version="1.0" encoding="UTF-8"?>
<svg width="50pt" height="50pt" version="1.1" viewBox="0 0 752 752" xmlns="http://www.w3.org/2000/svg">
 <defs>
  <clipPath id="a">
   <path d="m139.21 139.21h473.58v473.58h-473.58z"/>
  </clipPath>
 </defs>
 <path d="m235.9 183.61-2.957 2.9609c-3.9453 3.9453-3.9453 9.8672 0 13.812 3.9453 3.9453 9.8672 3.9453 13.812 0l2.9609-2.9609c3.9453-3.9453 3.9453-9.8672 0-13.812-3.9492-3.9453-9.8672-3.9453-13.816 0z"/>
 <g clip-path="url(#a)">
  <path d="m593.06 476.64-112.48-14.801c7.8945-106.55-16.773-188.45-73.996-243.7-96.688-94.715-250.6-77.941-257.51-76.957-3.9492 0-7.8945 3.9453-7.8945 7.8945-0.98438 6.9062-17.758 160.82 76.957 258.5 55.25 57.223 137.14 81.891 243.7 73.996l14.801 111.49c1.9727 18.746 25.652 26.641 38.477 12.824l90.77-90.77c13.816-13.809 5.9219-36.504-12.824-38.477zm-429.18-229.88c19.734 17.758 41.438 21.707 57.223 21.707 9.8672 0 16.773-1.9727 16.773-1.9727 4.9336-0.98828 8.8789-6.9062 6.9062-11.84-0.98828-4.9336-6.9062-7.8945-11.84-6.9062-1.9688-0.003907-46.367 10.852-73.008-39.469-0.98438-21.703-0.98438-39.465 0-48.344 23.68-1.9727 96.688-2.9609 164.77 26.641-10.852 28.613-53.277 121.36-137.14 139.11-11.84-26.641-18.746-54.266-23.68-78.93zm296.98 214.1c-40.453 2.9609-77.945 0.98828-110.5-5.918 0.98828-13.812 4.9336-24.664 12.824-32.559 14.801-13.812 36.504-12.824 36.504-12.824 4.9336 0 9.8672-3.9453 9.8672-8.8789 0-5.918-3.9453-9.8672-8.8789-9.8672-0.98828 0-30.586-0.98828-51.305 18.746-10.852 10.852-17.758 24.664-18.746 41.438-32.559-8.8789-60.184-23.68-83.863-43.41 0.98828-13.812 4.9336-24.664 12.824-32.559 14.801-13.812 36.504-12.824 36.504-12.824 4.9336 0 9.8672-3.9453 9.8672-8.8789 0-5.918-3.9453-9.8672-8.8789-9.8672-0.98828 0-30.586-0.98828-51.305 18.746-8.8789 7.8945-13.812 17.758-16.773 30.586-13.812-14.801-24.664-30.586-33.547-47.359 71.039-16.773 120.37-81.891 146.02-147.99 17.758 9.8672 35.52 21.707 51.305 37.492 5.918 5.918 11.84 12.824 17.758 19.734-9.8672 1.9727-23.68 6.9062-34.531 16.773-12.824 12.824-19.734 29.598-19.734 52.293 0 5.918 3.9453 9.8672 9.8672 9.8672 5.918 0 9.8672-3.9453 9.8672-9.8672 0-16.773 4.9336-28.613 13.812-37.492 10.852-10.852 26.641-12.824 33.547-12.824 31.578 45.371 43.418 109.5 37.5 187.45zm131.22 40.453-90.77 90.77c-1.9727 1.9727-4.9336 0.98828-4.9336-1.9727l-13.812-108.53 108.53 13.812c1.9727 0.98438 2.9609 3.9414 0.98828 5.918z"/>
 </g>
</svg>
